<?xml version="1.0" standalone="no"?><!DOCTYPE svg PUBLIC "-//W3C//DTD SVG 1.1//EN" "http://www.w3.org/Graphics/SVG/1.1/DTD/svg11.dtd"><svg t="1596184006967" class="icon" viewBox="0 0 1024 1024" version="1.1" xmlns="http://www.w3.org/2000/svg" p-id="9296" width="32" height="32" xmlns:xlink="http://www.w3.org/1999/xlink"><defs><style type="text/css"></style></defs><path d="M849.122536 321.667264H274.948587A43.754652 43.754652 0 0 0 235.710544 357.658994l-56.457615 210.445761a63.514817 63.514817 0 0 0 13.26754 59.703929 144.954928 144.954928 0 0 0 23.147622 19.054445 118.702136 118.702136 0 0 0 28.228808 3.669745 115.455824 115.455824 0 0 0 115.173535-112.915231 20.748174 20.748174 0 0 1 20.889318-24.135631 21.171606 21.171606 0 0 1 21.171606 21.171606v2.964025A115.173535 115.173535 0 0 0 630.913853 535.218194a21.171606 21.171606 0 0 1 21.171605-21.171605 21.171606 21.171606 0 0 1 21.171606 21.171605 115.31468 115.31468 0 1 0 230.488215 0 14.114404 14.114404 0 0 1 0-2.258304 6.210338 6.210338 0 0 1-0.846864-2.258305z" fill="#d4237a" opacity=".2" p-id="9297"></path><path d="M579.819711 184.475258a50.952998 50.952998 0 0 0 36.979738-9.174362 50.529566 50.529566 0 0 0 11.150379-70.572019A50.952998 50.952998 0 0 0 595.486699 84.686423a50.67071 50.67071 0 0 0-57.727912 42.343212 50.106134 50.106134 0 0 0 8.468642 37.262026 50.952998 50.952998 0 0 0 33.592282 20.183597zM574.456237 116.443832a22.441902 22.441902 0 0 1 13.126396-4.234321h3.528601a21.736182 21.736182 0 0 1 14.114403 8.892074 22.300758 22.300758 0 0 1-4.940041 31.192833 22.72419 22.72419 0 0 1-16.513852 3.952033 21.736182 21.736182 0 0 1-14.114404-8.892075A22.441902 22.441902 0 0 1 574.456237 116.443832z" fill="#d4237a" p-id="9298"></path><path d="M1003.816402 261.681048h-25.547071v-25.547071a10.444659 10.444659 0 0 0-10.444658-10.303515h-3.105169a10.444659 10.444659 0 0 0-10.444659 10.303515v25.547071H928.727774a10.444659 10.444659 0 0 0-10.303515 10.444658v3.246313a10.303515 10.303515 0 0 0 10.303515 10.303515h25.547071v25.547071a10.444659 10.444659 0 0 0 10.444659 10.444659h3.105169a10.444659 10.444659 0 0 0 10.444658-10.444659v-25.547071h25.547071a10.303515 10.303515 0 0 0 10.303515-10.303515v-3.246313a10.444659 10.444659 0 0 0-10.303515-10.444658zM110.939214 261.681048a50.529566 50.529566 0 1 0-50.529565 50.529565 50.67071 50.67071 0 0 0 50.529565-50.529565z m-50.529565 22.300758a22.300758 22.300758 0 1 1 22.300758-22.300758 22.300758 22.300758 0 0 1-22.300758 22.300758z" fill="#d4237a" p-id="9299"></path><path d="M326.914314 92.117266m8.072096-6.628135l2.399812-1.970526q8.072096-6.628135 14.70023 1.44396l17.107754 20.834733q6.628135 8.072096-1.443961 14.700231l-2.399812 1.970526q-8.072096 6.628135-14.70023-1.44396l-17.107754-20.834733q-6.628135-8.072096 1.443961-14.700231Z" fill="#d4237a" p-id="9300"></path><path d="M266.156371 17.888704m8.072096-6.628135l2.399812-1.970526q8.072096-6.628135 14.70023 1.44396l17.107754 20.834733q6.628135 8.072096-1.443961 14.700231l-2.399812 1.970526q-8.072096 6.628135-14.70023-1.44396l-17.107754-20.834733q-6.628135-8.072096 1.443961-14.700231Z" fill="#d4237a" p-id="9301"></path><path d="M343.890433 51.938003m10.412889-0.814027l26.876511-2.101068q10.412889-0.814026 11.226916 9.598863l0.242008 3.095723q0.814026 10.412889-9.598863 11.226916l-26.876511 2.101068q-10.412889 0.814026-11.226915-9.598863l-0.242008-3.095723q-0.814026-10.412889 9.598862-11.226916Z" fill="#d4237a" p-id="9302"></path><path d="M248.362369 59.503538m10.412889-0.814027l26.876511-2.101068q10.412889-0.814026 11.226915 9.598863l0.242008 3.095724q0.814026 10.412889-9.598862 11.226915l-26.876512 2.101068q-10.412889 0.814026-11.226915-9.598862l-0.242008-3.095724q-0.814026-10.412889 9.598863-11.226916Z" fill="#d4237a" p-id="9303"></path><path d="M321.120398 39.087765m4.738527-9.307914l12.230522-24.02448q4.738527-9.307914 14.046441-4.569387l2.767218 1.408751q9.307914 4.738527 4.569387 14.046441l-12.230523 24.024481q-4.738527 9.307914-14.046441 4.569386l-2.767218-1.408751q-9.307914-4.738527-4.569386-14.046441Z" fill="#d4237a" p-id="9304"></path><path d="M277.723369 124.456496m4.736903-9.308741l12.226329-24.026614q4.736902-9.308741 14.045643-4.571838l2.767464 1.408268q9.308741 4.736902 4.571838 14.045643l-12.226329 24.026615q-4.736902 9.308741-14.045644 4.571838l-2.767463-1.408269q-9.308741-4.736902-4.571838-14.045643Z" fill="#d4237a" p-id="9305"></path><path d="M320.396968 783.067126a57.727912 57.727912 0 0 0-57.727912 57.727912v113.620951a41.214059 41.214059 0 0 0 8.609786 25.123639 105.293453 105.293453 0 0 0 20.183598 2.11716h115.455823v-124.630186A66.05541 66.05541 0 0 1 475.65541 795.064369h98.800827a66.05541 66.05541 0 0 1 69.301723 61.962233v124.630186h91.602481c47.847829 0 86.944728-33.451137 86.944728-74.382908v-107.975189a57.30448 57.30448 0 0 0-39.802619-16.231565z" fill="#d4237a" opacity=".2" p-id="9306"></path><path d="M944.67705 519.974638l-60.974224-233.311096a96.82481 96.82481 0 0 0-93.29621-72.830324H242.485458a96.965955 96.965955 0 0 0-93.437353 72.971468L88.07388 519.974638a19.054445 19.054445 0 0 0 0 6.916058 20.465886 20.465886 0 0 0-1.834872 8.327498 157.657891 157.657891 0 0 0 76.076636 134.651413v237.404273c0 64.361682 58.0102 116.72612 129.28794 116.72612h444.039145c70.572019 0 129.287939-52.364438 129.28794-116.72612V673.398208a157.940179 157.940179 0 0 0 81.722398-138.180014 20.60703 20.60703 0 0 0-1.552585-7.762922 22.441902 22.441902 0 0 0-0.423432-7.480634z m-342.980013 461.68215H448.979187v-124.630186c0-10.444659 12.561819-19.619021 26.958511-19.619021h98.800827c14.114404 0 26.958511 9.174363 26.958512 19.619021z m220.89042-182.358097v107.975189c0 40.931771-39.096899 74.382908-86.944728 74.382908h-91.602481v-124.630186A66.05541 66.05541 0 0 0 574.456237 795.064369h-98.800827a66.05541 66.05541 0 0 0-69.301723 61.962233v124.630186h-115.173535a105.293453 105.293453 0 0 1-20.183598-2.11716c-38.250034-7.904066-66.76113-37.262026-66.76113-72.265748V687.653756a155.258442 155.258442 0 0 0 175.583184-73.677188 157.093315 157.093315 0 0 0 272.690282 0 157.516747 157.516747 0 0 0 136.486286 79.181806 155.258442 155.258442 0 0 0 33.592281-3.669745z m81.722398-264.080497a115.31468 115.31468 0 1 1-230.488215 0 21.171606 21.171606 0 0 0-21.171606-21.171605 21.171606 21.171606 0 0 0-21.171605 21.171605 115.173535 115.173535 0 0 1-230.347071 2.964025v-2.964025a21.171606 21.171606 0 0 0-21.171606-21.171605 20.748174 20.748174 0 0 0-20.889318 24.13563 115.455824 115.455824 0 0 1-115.173535 112.915231 118.702136 118.702136 0 0 1-28.228808-3.669745 115.455824 115.455824 0 0 1-86.803584-111.644934v-1.976017c0-0.564576 0.846864-1.693728 1.129153-2.540593l60.83308-233.169951a54.622743 54.622743 0 0 1 52.505583-41.355204H790.406616a54.622743 54.622743 0 0 1 52.223294 40.649483l6.351482 24.276775 54.763887 209.034321a6.210338 6.210338 0 0 0 0.846864 2.258305 14.114404 14.114404 0 0 0-0.282288 2.258304z" fill="#d4237a" p-id="9307"></path></svg>